<svg width="64" height="65" viewBox="0 0 64 65" fill="none" xmlns="http://www.w3.org/2000/svg">
<mask id="mask0_177_2273" style="mask-type:luminance" maskUnits="userSpaceOnUse" x="0" y="0" width="65" height="65">
<path d="M0.144531 0.395508H64.0067V64.2577H0.144531V0.395508Z" fill="white"/>
</mask>
<g mask="url(#mask0_177_2273)">
<mask id="mask1_177_2273" style="mask-type:luminance" maskUnits="userSpaceOnUse" x="0" y="0" width="65" height="65">
<path d="M14.8447 34.3792C14.8447 32.6834 13.4663 31.2998 11.7705 31.2998C10.0747 31.2998 8.69625 32.6834 8.69625 34.3792C8.69625 36.075 10.0747 37.4535 11.7705 37.4535C13.4663 37.4535 14.8447 36.075 14.8447 34.3792ZM11.7705 35.404C11.2035 35.404 10.7457 34.941 10.7457 34.3792C10.7457 33.8122 11.2035 33.3545 11.7705 33.3545C12.3375 33.3545 12.7952 33.8122 12.7952 34.3792C12.7952 34.941 12.3375 35.404 11.7705 35.404ZM22.0232 37.4535C23.719 37.4535 25.0974 36.075 25.0974 34.3792C25.0974 32.6834 23.719 31.2998 22.0232 31.2998C20.3274 31.2998 18.9437 32.6834 18.9437 34.3792C18.9437 36.075 20.3274 37.4535 22.0232 37.4535ZM22.0232 33.3545C22.585 33.3545 23.0479 33.8122 23.0479 34.3792C23.0479 34.941 22.585 35.404 22.0232 35.404C21.4562 35.404 20.9984 34.941 20.9984 34.3792C20.9984 33.8122 21.4562 33.3545 22.0232 33.3545ZM20.4367 42.8893L21.2845 39.503H12.5091L13.3518 42.8893C13.7628 44.5175 15.2193 45.6515 16.8942 45.6515C18.5744 45.6515 20.0309 44.5175 20.4367 42.8893ZM15.3441 42.3899L15.136 41.5525H18.6576L18.4496 42.3899C18.2727 43.1026 17.6329 43.602 16.8942 43.602C16.1608 43.602 15.521 43.1026 15.3441 42.3899ZM39.4491 53.8547H37.3996V51.8052H39.4491V53.8547ZM61.9988 0.546875H16.8942C15.7655 0.546875 14.8447 1.46759 14.8447 2.60158V4.65107C14.8447 5.77986 15.7655 6.70057 16.8942 6.70057V16.9481H13.2114C8.74306 16.9481 4.36317 18.4878 0.877981 21.2759L0.144531 21.8637L2.25125 25.0212L0.31619 26.9563L2.18883 31.6431C1.19009 32.1529 0.49305 33.1776 0.49305 34.3792C0.49305 36.075 1.87672 37.4535 3.5725 37.4535H4.59725C4.59725 42.598 7.77553 47.0091 12.2699 48.8453C11.3439 49.662 10.7457 50.848 10.7457 52.1849V56.9289C10.7457 60.8874 13.9656 64.1021 17.919 64.1021H43.5481C44.6769 64.1021 45.5976 63.1866 45.5976 62.0526V57.9536H61.9988C63.1328 57.9536 64.0483 57.0329 64.0483 55.9042V53.8547C64.0483 52.7207 63.1328 51.8052 61.9988 51.8052V6.70057C63.1328 6.70057 64.0483 5.77986 64.0483 4.65107V2.60158C64.0483 1.46759 63.1328 0.546875 61.9988 0.546875ZM3.5725 35.404C3.00551 35.404 2.54255 34.941 2.54255 34.3792C2.54255 33.8122 3.00551 33.3545 3.5725 33.3545H4.59725V35.404H3.5725ZM4.59725 30.3062V31.2998H4.26434L2.72461 27.4504L4.88855 25.2813L2.90667 22.3111C5.89769 20.168 9.51813 19.0028 13.2114 19.0028H23.9791C27.9844 19.0028 31.2459 22.2591 31.2459 26.2696C31.2459 27.3932 30.9806 28.5168 30.4761 29.5156L29.5866 31.2998H29.1964C29.1964 29.0422 27.3602 27.2008 25.0974 27.2008H12.1034C11.3544 27.2008 10.7457 26.5922 10.7457 25.8431C10.7457 25.2553 11.1203 24.7403 11.6769 24.5583L13.123 24.0745L12.4727 22.129L11.0266 22.6128C9.63257 23.0758 8.69625 24.3762 8.69625 25.8431C8.69625 25.8587 8.69625 25.8795 8.69625 25.8899L7.17213 26.5037C5.60639 27.1279 4.59725 28.6208 4.59725 30.3062ZM23.9791 16.9481H23.0479V10.7996H35.3449V23.1018H32.7284C31.428 19.5229 28.0052 16.9481 23.9791 16.9481ZM29.1964 33.3545H30.2212C30.7882 33.3545 31.2459 33.8122 31.2459 34.3792C31.2459 34.941 30.7882 35.404 30.2212 35.404H29.1964V33.3545ZM6.64675 37.4535V30.3062C6.64675 29.4635 7.15132 28.7197 7.93159 28.4024L9.34127 27.8406C9.96548 28.6937 10.9694 29.2503 12.1034 29.2503H25.0974C26.2262 29.2503 27.1469 30.171 27.1469 31.2998V37.4535C27.1469 43.1026 22.5486 47.701 16.8942 47.701C11.2451 47.701 6.64675 43.1026 6.64675 37.4535ZM25.9765 55.7221C25.8985 55.0719 25.7425 54.4477 25.5344 53.8547H31.2459V56.0914C30.9234 55.977 30.5853 55.9042 30.2212 55.9042H26.0025L25.9765 55.7221ZM30.2212 60.0031H29.1964V57.9536H30.2212C30.7882 57.9536 31.2459 58.4166 31.2459 58.9784C31.2459 59.5454 30.7882 60.0031 30.2212 60.0031ZM19.568 51.0977C19.4847 50.7596 19.3495 50.4475 19.1986 50.1458C21.6747 50.9989 23.5629 53.1888 23.9322 55.9042H20.7696L19.568 51.0977ZM17.919 62.0526C15.0944 62.0526 12.7952 59.7535 12.7952 56.9289V52.1797C12.7952 50.8428 13.8876 49.7557 15.2245 49.7557C16.3429 49.7557 17.3104 50.5099 17.5809 51.5919L18.8345 56.6116L17.1959 58.2554L18.6472 59.7014L20.395 57.9536H27.1469V62.0526H17.919ZM43.5481 62.0526H30.2212C31.558 62.0526 32.6868 61.1944 33.1082 60.0031H43.5481V62.0526ZM43.5481 57.9536H33.2954V49.7557H43.5481V57.9536ZM42.8251 41.2508L44.2712 39.8047L43.236 38.7643C43.8967 38.1713 44.6977 37.7396 45.5976 37.5575V39.6902C44.7289 40.0023 44.0475 40.6838 43.7354 41.5525H41.6027C41.6807 41.1519 41.8211 40.7774 41.9928 40.4185L42.8251 41.2508ZM51.2572 44.7359L50.4249 43.9037L48.9736 45.355L50.0139 46.3901C49.3533 46.9831 48.547 47.4149 47.6471 47.5969V45.4642C48.8383 45.0376 49.6966 43.9141 49.6966 42.5772C49.6966 41.2404 48.8383 40.1168 47.6471 39.6902V37.5575C49.9827 38.0309 51.7513 40.1012 51.7513 42.5772C51.7513 43.3523 51.5641 44.0753 51.2572 44.7359ZM46.6224 41.5525C47.1894 41.5525 47.6471 42.0102 47.6471 42.5772C47.6471 43.1442 47.1894 43.602 46.6224 43.602C46.0606 43.602 45.5976 43.1442 45.5976 42.5772C45.5976 42.0102 46.0606 41.5525 46.6224 41.5525ZM43.7354 43.602C44.0475 44.4707 44.7289 45.1521 45.5976 45.4642V47.5969C43.5949 47.1912 42.0084 45.6098 41.6027 43.602H43.7354ZM61.9988 55.9042H45.5976V53.8547H61.9988V55.9042ZM59.9493 51.8052H45.5976V49.7557C45.5976 49.7244 45.5924 49.6984 45.5924 49.6724C45.9305 49.7192 46.2739 49.7557 46.6224 49.7557C48.573 49.7557 50.3416 48.9702 51.6369 47.701H57.8998V45.6515H53.0986C53.5407 44.7203 53.8008 43.68 53.8008 42.5772C53.8008 38.6187 50.5809 35.404 46.6224 35.404C44.6717 35.404 42.9031 36.1842 41.6131 37.4535H34.3202V39.503H40.1514C39.704 40.4341 39.4491 41.4744 39.4491 42.5772C39.4491 44.5851 40.2762 46.4005 41.6131 47.701H33.2954C32.1667 47.701 31.2459 48.6217 31.2459 49.7557V51.8052H24.5252C23.719 50.5983 22.6422 49.6048 21.3834 48.8922C25.9505 47.0923 29.1964 42.65 29.1964 37.4535H30.2212C31.917 37.4535 33.2954 36.075 33.2954 34.3792C33.2954 33.214 32.64 32.2101 31.6881 31.6899L32.3123 30.4363C32.9573 29.1514 33.2954 27.7105 33.2954 26.2696C33.2954 25.8899 33.2694 25.5206 33.2226 25.1513H35.3449C36.4789 25.1513 37.3996 24.2306 37.3996 23.1018V10.7996C37.3996 9.67079 36.4789 8.75007 35.3449 8.75007H23.0479C21.914 8.75007 20.9984 9.67079 20.9984 10.7996V16.9481H18.9437V6.70057H59.9493V51.8052ZM16.8942 4.65107V2.60158H61.9988V4.65107H16.8942ZM40.4739 25.1513C37.6493 25.1513 35.3449 27.4504 35.3449 30.275C35.3449 33.1048 37.6493 35.404 40.4739 35.404C43.2984 35.404 45.5976 33.1048 45.5976 30.275C45.5976 27.4504 43.2984 25.1513 40.4739 25.1513ZM42.1749 27.7209L40.4739 28.9954L38.7677 27.7209C39.2567 27.3932 39.8445 27.2008 40.4739 27.2008C41.1033 27.2008 41.6859 27.3932 42.1749 27.7209ZM37.3996 30.275C37.3996 29.9577 37.4621 29.656 37.5505 29.3647L39.4491 30.79V33.162C38.2579 32.7407 37.3996 31.6119 37.3996 30.275ZM41.4986 33.162V30.79L43.3973 29.3647C43.4857 29.656 43.5481 29.9577 43.5481 30.275C43.5481 31.6119 42.6898 32.7407 41.4986 33.162ZM52.7761 35.404C55.6006 35.404 57.8998 33.1048 57.8998 30.275C57.8998 27.4504 55.6006 25.1513 52.7761 25.1513C49.9463 25.1513 47.6471 27.4504 47.6471 30.275C47.6471 33.1048 49.9463 35.404 52.7761 35.404ZM49.6966 30.275C49.6966 29.9577 49.759 29.656 49.8527 29.3647L51.7513 30.79V33.162C50.5601 32.7407 49.6966 31.6119 49.6966 30.275ZM53.8008 33.162V30.79L55.6943 29.3647C55.7879 29.656 55.8503 29.9577 55.8503 30.275C55.8503 31.6119 54.9868 32.7407 53.8008 33.162ZM54.4771 27.7209L52.7709 28.9954L51.0699 27.7209C51.5589 27.3932 52.1467 27.2008 52.7761 27.2008C53.4055 27.2008 53.9881 27.3932 54.4771 27.7209ZM41.4986 14.8986H43.5481C44.6769 14.8986 45.5976 13.9831 45.5976 12.8491V10.7996C45.5976 9.67079 44.6769 8.75007 43.5481 8.75007H41.4986C40.3698 8.75007 39.4491 9.67079 39.4491 10.7996V12.8491C39.4491 13.9831 40.3698 14.8986 41.4986 14.8986ZM41.4986 10.7996H43.5481V12.8491H41.4986V10.7996ZM41.4986 23.1018H43.5481C44.6769 23.1018 45.5976 22.1811 45.5976 21.0523V19.0028C45.5976 17.8688 44.6769 16.9481 43.5481 16.9481H41.4986C40.3698 16.9481 39.4491 17.8688 39.4491 19.0028V21.0523C39.4491 22.1811 40.3698 23.1018 41.4986 23.1018ZM41.4986 19.0028H43.5481V21.0523H41.4986V19.0028ZM53.8008 12.8491H47.6471V10.7996H53.8008V12.8491ZM57.8998 12.8491H55.8503V10.7996H57.8998V12.8491ZM53.8008 21.0523H47.6471V19.0028H53.8008V21.0523ZM57.8998 21.0523H55.8503V19.0028H57.8998V21.0523Z" fill="white"/>
</mask>
<g mask="url(#mask1_177_2273)">
<path d="M0.144531 0.546875V64.1021H64.0067V0.546875H0.144531Z" fill="url(#paint0_linear_177_2273)"/>
</g>
</g>
<defs>
<linearGradient id="paint0_linear_177_2273" x1="16.3046" y1="16.2432" x2="47.6912" y2="48.557" gradientUnits="userSpaceOnUse">
<stop stop-color="#CC0A60"/>
<stop offset="0.015625" stop-color="#CC0A60"/>
<stop offset="0.0195312" stop-color="#CB0B61"/>
<stop offset="0.0234375" stop-color="#CA0C61"/>
<stop offset="0.0273438" stop-color="#C90C62"/>
<stop offset="0.03125" stop-color="#C80D62"/>
<stop offset="0.0351562" stop-color="#C80D63"/>
<stop offset="0.0390625" stop-color="#C70E63"/>
<stop offset="0.0429688" stop-color="#C60F64"/>
<stop offset="0.046875" stop-color="#C60F64"/>
<stop offset="0.0507812" stop-color="#C51064"/>
<stop offset="0.0546875" stop-color="#C41065"/>
<stop offset="0.0585938" stop-color="#C31165"/>
<stop offset="0.0625" stop-color="#C31266"/>
<stop offset="0.0664062" stop-color="#C21266"/>
<stop offset="0.0703125" stop-color="#C11367"/>
<stop offset="0.0742188" stop-color="#C01367"/>
<stop offset="0.078125" stop-color="#C01468"/>
<stop offset="0.0820312" stop-color="#BF1568"/>
<stop offset="0.0859375" stop-color="#BE1569"/>
<stop offset="0.0898438" stop-color="#BE1669"/>
<stop offset="0.09375" stop-color="#BD166A"/>
<stop offset="0.0976562" stop-color="#BC176A"/>
<stop offset="0.101562" stop-color="#BB176B"/>
<stop offset="0.105469" stop-color="#BB186B"/>
<stop offset="0.109375" stop-color="#BA196B"/>
<stop offset="0.113281" stop-color="#B9196C"/>
<stop offset="0.117188" stop-color="#B81A6C"/>
<stop offset="0.121094" stop-color="#B81A6D"/>
<stop offset="0.125" stop-color="#B71B6D"/>
<stop offset="0.128906" stop-color="#B61C6E"/>
<stop offset="0.132812" stop-color="#B61C6E"/>
<stop offset="0.136719" stop-color="#B51D6F"/>
<stop offset="0.140625" stop-color="#B41D6F"/>
<stop offset="0.144531" stop-color="#B31E70"/>
<stop offset="0.148438" stop-color="#B31F70"/>
<stop offset="0.152344" stop-color="#B21F71"/>
<stop offset="0.15625" stop-color="#B12071"/>
<stop offset="0.160156" stop-color="#B12071"/>
<stop offset="0.164062" stop-color="#B02172"/>
<stop offset="0.167969" stop-color="#AF2272"/>
<stop offset="0.171875" stop-color="#AE2273"/>
<stop offset="0.175781" stop-color="#AE2373"/>
<stop offset="0.179688" stop-color="#AD2374"/>
<stop offset="0.183594" stop-color="#AC2474"/>
<stop offset="0.1875" stop-color="#AB2475"/>
<stop offset="0.191406" stop-color="#AB2575"/>
<stop offset="0.195312" stop-color="#AA2676"/>
<stop offset="0.199219" stop-color="#A92676"/>
<stop offset="0.203125" stop-color="#A92777"/>
<stop offset="0.207031" stop-color="#A82777"/>
<stop offset="0.210938" stop-color="#A72877"/>
<stop offset="0.214844" stop-color="#A62978"/>
<stop offset="0.21875" stop-color="#A62978"/>
<stop offset="0.222656" stop-color="#A52A79"/>
<stop offset="0.226562" stop-color="#A42A79"/>
<stop offset="0.230469" stop-color="#A32B7A"/>
<stop offset="0.234375" stop-color="#A32C7A"/>
<stop offset="0.238281" stop-color="#A22C7B"/>
<stop offset="0.242188" stop-color="#A12D7B"/>
<stop offset="0.246094" stop-color="#A12D7C"/>
<stop offset="0.25" stop-color="#A02E7C"/>
<stop offset="0.253906" stop-color="#9F2E7D"/>
<stop offset="0.257812" stop-color="#9E2F7D"/>
<stop offset="0.261719" stop-color="#9E307D"/>
<stop offset="0.265625" stop-color="#9D307E"/>
<stop offset="0.269531" stop-color="#9C317E"/>
<stop offset="0.273438" stop-color="#9C317F"/>
<stop offset="0.277344" stop-color="#9B327F"/>
<stop offset="0.28125" stop-color="#9A3380"/>
<stop offset="0.285156" stop-color="#993380"/>
<stop offset="0.289062" stop-color="#993481"/>
<stop offset="0.292969" stop-color="#983481"/>
<stop offset="0.296875" stop-color="#973582"/>
<stop offset="0.300781" stop-color="#963682"/>
<stop offset="0.304688" stop-color="#963683"/>
<stop offset="0.308594" stop-color="#953783"/>
<stop offset="0.3125" stop-color="#943783"/>
<stop offset="0.316406" stop-color="#943884"/>
<stop offset="0.320312" stop-color="#933984"/>
<stop offset="0.324219" stop-color="#923985"/>
<stop offset="0.328125" stop-color="#913A85"/>
<stop offset="0.332031" stop-color="#913A86"/>
<stop offset="0.335938" stop-color="#903B86"/>
<stop offset="0.339844" stop-color="#8F3B87"/>
<stop offset="0.34375" stop-color="#8F3C87"/>
<stop offset="0.347656" stop-color="#8E3D88"/>
<stop offset="0.351562" stop-color="#8D3D88"/>
<stop offset="0.355469" stop-color="#8C3E89"/>
<stop offset="0.359375" stop-color="#8C3E89"/>
<stop offset="0.363281" stop-color="#8B3F8A"/>
<stop offset="0.367188" stop-color="#8A408A"/>
<stop offset="0.371094" stop-color="#89408A"/>
<stop offset="0.375" stop-color="#89418B"/>
<stop offset="0.378906" stop-color="#88418B"/>
<stop offset="0.382812" stop-color="#87428C"/>
<stop offset="0.386719" stop-color="#87438C"/>
<stop offset="0.390625" stop-color="#86438D"/>
<stop offset="0.394531" stop-color="#85448D"/>
<stop offset="0.398438" stop-color="#84448E"/>
<stop offset="0.402344" stop-color="#84458E"/>
<stop offset="0.40625" stop-color="#83458F"/>
<stop offset="0.410156" stop-color="#82468F"/>
<stop offset="0.414062" stop-color="#814790"/>
<stop offset="0.417969" stop-color="#814790"/>
<stop offset="0.421875" stop-color="#804890"/>
<stop offset="0.425781" stop-color="#7F4891"/>
<stop offset="0.429688" stop-color="#7F4991"/>
<stop offset="0.433594" stop-color="#7E4A92"/>
<stop offset="0.4375" stop-color="#7D4A92"/>
<stop offset="0.441406" stop-color="#7C4B93"/>
<stop offset="0.445312" stop-color="#7C4B93"/>
<stop offset="0.449219" stop-color="#7B4C94"/>
<stop offset="0.453125" stop-color="#7A4D94"/>
<stop offset="0.457031" stop-color="#7A4D95"/>
<stop offset="0.460938" stop-color="#794E95"/>
<stop offset="0.464844" stop-color="#784E96"/>
<stop offset="0.46875" stop-color="#774F96"/>
<stop offset="0.472656" stop-color="#775096"/>
<stop offset="0.476562" stop-color="#765097"/>
<stop offset="0.480469" stop-color="#755197"/>
<stop offset="0.484375" stop-color="#745198"/>
<stop offset="0.488281" stop-color="#745298"/>
<stop offset="0.492188" stop-color="#735299"/>
<stop offset="0.496094" stop-color="#725399"/>
<stop offset="0.5" stop-color="#72549A"/>
<stop offset="0.503906" stop-color="#71549A"/>
<stop offset="0.507812" stop-color="#70559B"/>
<stop offset="0.511719" stop-color="#6F559B"/>
<stop offset="0.515625" stop-color="#6F569C"/>
<stop offset="0.519531" stop-color="#6E579C"/>
<stop offset="0.523438" stop-color="#6D579C"/>
<stop offset="0.527344" stop-color="#6C589D"/>
<stop offset="0.53125" stop-color="#6C589D"/>
<stop offset="0.535156" stop-color="#6B599E"/>
<stop offset="0.539062" stop-color="#6A5A9E"/>
<stop offset="0.542969" stop-color="#6A5A9F"/>
<stop offset="0.546875" stop-color="#695B9F"/>
<stop offset="0.550781" stop-color="#685BA0"/>
<stop offset="0.554688" stop-color="#675CA0"/>
<stop offset="0.558594" stop-color="#675CA1"/>
<stop offset="0.5625" stop-color="#665DA1"/>
<stop offset="0.566406" stop-color="#655EA2"/>
<stop offset="0.570312" stop-color="#655EA2"/>
<stop offset="0.574219" stop-color="#645FA2"/>
<stop offset="0.578125" stop-color="#635FA3"/>
<stop offset="0.582031" stop-color="#6260A3"/>
<stop offset="0.585938" stop-color="#6261A4"/>
<stop offset="0.589844" stop-color="#6161A4"/>
<stop offset="0.59375" stop-color="#6062A5"/>
<stop offset="0.597656" stop-color="#5F62A5"/>
<stop offset="0.601562" stop-color="#5F63A6"/>
<stop offset="0.605469" stop-color="#5E64A6"/>
<stop offset="0.609375" stop-color="#5D64A7"/>
<stop offset="0.613281" stop-color="#5D65A7"/>
<stop offset="0.617188" stop-color="#5C65A8"/>
<stop offset="0.621094" stop-color="#5B66A8"/>
<stop offset="0.625" stop-color="#5A67A9"/>
<stop offset="0.628906" stop-color="#5A67A9"/>
<stop offset="0.632812" stop-color="#5968A9"/>
<stop offset="0.636719" stop-color="#5868AA"/>
<stop offset="0.640625" stop-color="#5769AA"/>
<stop offset="0.644531" stop-color="#5769AB"/>
<stop offset="0.648438" stop-color="#566AAB"/>
<stop offset="0.652344" stop-color="#556BAC"/>
<stop offset="0.65625" stop-color="#556BAC"/>
<stop offset="0.660156" stop-color="#546CAD"/>
<stop offset="0.664062" stop-color="#536CAD"/>
<stop offset="0.667969" stop-color="#526DAE"/>
<stop offset="0.671875" stop-color="#526EAE"/>
<stop offset="0.675781" stop-color="#516EAF"/>
<stop offset="0.679688" stop-color="#506FAF"/>
<stop offset="0.683594" stop-color="#506FAF"/>
<stop offset="0.6875" stop-color="#4F70B0"/>
<stop offset="0.691406" stop-color="#4E71B0"/>
<stop offset="0.695312" stop-color="#4D71B1"/>
<stop offset="0.699219" stop-color="#4D72B1"/>
<stop offset="0.703125" stop-color="#4C72B2"/>
<stop offset="0.707031" stop-color="#4B73B2"/>
<stop offset="0.710938" stop-color="#4A73B3"/>
<stop offset="0.714844" stop-color="#4A74B3"/>
<stop offset="0.71875" stop-color="#4975B4"/>
<stop offset="0.722656" stop-color="#4875B4"/>
<stop offset="0.726562" stop-color="#4876B5"/>
<stop offset="0.730469" stop-color="#4776B5"/>
<stop offset="0.734375" stop-color="#4677B5"/>
<stop offset="0.738281" stop-color="#4578B6"/>
<stop offset="0.742188" stop-color="#4578B6"/>
<stop offset="0.746094" stop-color="#4479B7"/>
<stop offset="0.75" stop-color="#4379B7"/>
<stop offset="0.753906" stop-color="#437AB8"/>
<stop offset="0.757812" stop-color="#427BB8"/>
<stop offset="0.761719" stop-color="#417BB9"/>
<stop offset="0.765625" stop-color="#407CB9"/>
<stop offset="0.769531" stop-color="#407CBA"/>
<stop offset="0.773438" stop-color="#3F7DBA"/>
<stop offset="0.777344" stop-color="#3E7EBB"/>
<stop offset="0.78125" stop-color="#3D7EBB"/>
<stop offset="0.785156" stop-color="#3D7FBB"/>
<stop offset="0.789062" stop-color="#3C7FBC"/>
<stop offset="0.792969" stop-color="#3B80BC"/>
<stop offset="0.796875" stop-color="#3B80BD"/>
<stop offset="0.800781" stop-color="#3A81BD"/>
<stop offset="0.804688" stop-color="#3982BE"/>
<stop offset="0.808594" stop-color="#3882BE"/>
<stop offset="0.8125" stop-color="#3883BF"/>
<stop offset="0.816406" stop-color="#3783BF"/>
<stop offset="0.820312" stop-color="#3684C0"/>
<stop offset="0.824219" stop-color="#3585C0"/>
<stop offset="0.828125" stop-color="#3585C1"/>
<stop offset="0.832031" stop-color="#3486C1"/>
<stop offset="0.835938" stop-color="#3386C1"/>
<stop offset="0.839844" stop-color="#3387C2"/>
<stop offset="0.84375" stop-color="#3288C2"/>
<stop offset="0.847656" stop-color="#3188C3"/>
<stop offset="0.851562" stop-color="#3089C3"/>
<stop offset="0.855469" stop-color="#3089C4"/>
<stop offset="0.859375" stop-color="#2F8AC4"/>
<stop offset="0.863281" stop-color="#2E8AC5"/>
<stop offset="0.867188" stop-color="#2E8BC5"/>
<stop offset="0.871094" stop-color="#2D8CC6"/>
<stop offset="0.875" stop-color="#2C8CC6"/>
<stop offset="0.878906" stop-color="#2B8DC7"/>
<stop offset="0.882812" stop-color="#2B8DC7"/>
<stop offset="0.886719" stop-color="#2A8EC8"/>
<stop offset="0.890625" stop-color="#298FC8"/>
<stop offset="0.894531" stop-color="#288FC8"/>
<stop offset="0.898438" stop-color="#2890C9"/>
<stop offset="0.902344" stop-color="#2790C9"/>
<stop offset="0.90625" stop-color="#2691CA"/>
<stop offset="0.910156" stop-color="#2692CA"/>
<stop offset="0.914062" stop-color="#2592CB"/>
<stop offset="0.917969" stop-color="#2493CB"/>
<stop offset="0.921875" stop-color="#2393CC"/>
<stop offset="0.925781" stop-color="#2394CC"/>
<stop offset="0.929688" stop-color="#2295CD"/>
<stop offset="0.933594" stop-color="#2195CD"/>
<stop offset="0.9375" stop-color="#2096CE"/>
<stop offset="0.941406" stop-color="#2096CE"/>
<stop offset="0.945312" stop-color="#1F97CE"/>
<stop offset="0.949219" stop-color="#1E97CF"/>
<stop offset="0.953125" stop-color="#1E98CF"/>
<stop offset="0.957031" stop-color="#1D99D0"/>
<stop offset="0.960938" stop-color="#1C99D0"/>
<stop offset="0.964844" stop-color="#1B9AD1"/>
<stop offset="0.96875" stop-color="#1B9AD1"/>
<stop offset="0.972656" stop-color="#1A9BD2"/>
<stop offset="0.976562" stop-color="#199CD2"/>
<stop offset="0.980469" stop-color="#199CD3"/>
<stop offset="0.984375" stop-color="#189DD3"/>
<stop offset="0.988281" stop-color="#179DD4"/>
<stop offset="0.992188" stop-color="#169ED4"/>
<stop offset="0.996094" stop-color="#169FD4"/>
<stop offset="1" stop-color="#159FD5"/>
</linearGradient>
</defs>
</svg>
