<svg width="65" height="66" viewBox="0 0 65 66" fill="none" xmlns="http://www.w3.org/2000/svg">
<mask id="mask0_177_2267" style="mask-type:luminance" maskUnits="userSpaceOnUse" x="0" y="0" width="65" height="66">
<path d="M0.138672 0.291992H64.9996V65.1529H0.138672V0.291992Z" fill="white"/>
</mask>
<g mask="url(#mask0_177_2267)">
<mask id="mask1_177_2267" style="mask-type:luminance" maskUnits="userSpaceOnUse" x="0" y="0" width="65" height="66">
<path d="M5.36645 37.9268H6.41201V38.9724C6.41201 43.4979 9.04931 47.4149 12.8674 49.2875C8.84124 52.2161 6.41201 56.9029 6.41201 61.9694V65.1061H37.7735V61.9694C37.7735 56.9029 35.3443 52.2161 31.3233 49.2875C31.469 49.2147 31.625 49.1471 31.7707 49.069C34.2259 50.7596 37.0401 51.8728 39.9843 52.3201C40.3432 53.657 41.55 54.6505 43.0013 54.6505C44.4474 54.6505 45.6594 53.657 46.0183 52.3201C49.1758 51.8364 52.1616 50.6035 54.7417 48.7049C55.2255 48.9858 55.7612 49.1366 56.3074 49.1366C57.1085 49.1366 57.9096 48.8349 58.5234 48.2211C59.5481 47.1964 59.7042 45.6359 59.0071 44.4394C60.9058 41.8594 62.1386 38.8735 62.6224 35.7161C63.9592 35.3571 64.9528 34.1451 64.9528 32.699C64.9528 31.2477 63.9592 30.0357 62.6224 29.682C62.1386 26.5193 60.9058 23.5387 59.0071 20.9586C59.7042 19.757 59.5481 18.2017 58.5234 17.1769C57.4986 16.147 55.9381 15.9961 54.7417 16.688C52.1616 14.7945 49.1758 13.5565 46.0183 13.078C45.6594 11.7359 44.4474 10.7424 43.0013 10.7424C41.55 10.7424 40.338 11.7359 39.9843 13.078C39.901 13.0884 39.8178 13.0988 39.7398 13.1144C39.8178 12.6774 39.8646 12.2405 39.8646 11.7879C39.8646 7.75654 36.5823 4.47422 32.5457 4.47422C32.088 4.47422 31.6302 4.52103 31.1829 4.60946C30.361 2.10221 28.0046 0.291992 25.2268 0.291992C24.1084 0.291992 23.0421 0.593695 22.0954 1.15028C21.1434 0.593695 20.0771 0.291992 18.9587 0.291992C16.1809 0.291992 13.8245 2.10221 13.0027 4.60946C12.5553 4.52103 12.0975 4.47422 11.6398 4.47422C7.60322 4.47422 4.3209 7.75654 4.3209 11.7879C4.3209 13.1508 4.70583 14.446 5.40807 15.5852C4.72143 16.5891 4.3209 17.8012 4.3209 19.1068V21.1979C3.1661 21.1979 2.22978 22.1342 2.22978 23.289V28.5428C0.970956 29.5 0.138672 30.9981 0.138672 32.699C0.138672 35.5808 2.48467 37.9268 5.36645 37.9268ZM8.50312 38.9724V23.289H35.6824V38.9724C35.6824 44.1585 31.4638 48.3772 26.2724 48.3772H17.9131C12.727 48.3772 8.50312 44.1585 8.50312 38.9724ZM51.6935 29.0994C52.2032 30.3218 53.2436 31.2061 54.5024 31.5234V33.8694C53.254 34.1815 52.2032 35.0658 51.6935 36.2935C51.1837 37.5211 51.2981 38.8892 51.9587 39.9971L50.3046 41.6565C49.1966 40.9959 47.8337 40.8814 46.6009 41.3912C45.3785 41.8958 44.4942 42.9413 44.1769 44.195H41.8309C41.5136 42.9465 40.6345 41.901 39.4017 41.3912C38.8139 41.1467 38.1844 41.0531 37.5706 41.0843C37.7007 40.3977 37.7735 39.6954 37.7735 38.9724V37.9268H37.8983C39.256 39.2533 41.087 40.0127 43.0013 40.0127C47.0379 40.0127 50.3202 36.7304 50.3202 32.699C50.3202 28.6625 47.0379 25.3801 43.0013 25.3801C42.6476 25.3801 42.299 25.4166 41.9557 25.4686V23.289C41.9557 22.8105 41.7893 22.3787 41.5188 22.025C41.6488 21.7597 41.7581 21.4892 41.8257 21.1979H44.1717C44.4838 22.4463 45.3681 23.4919 46.5957 24.0017C47.8233 24.5115 49.1862 24.4022 50.2994 23.7364L51.9587 25.3958C51.2981 26.4985 51.1837 27.8666 51.6935 29.0994ZM41.9557 27.5857C42.299 27.5181 42.6476 27.4713 43.0013 27.4713C45.8831 27.4713 48.2291 29.8173 48.2291 32.699C48.2291 35.5808 45.8831 37.9268 43.0013 37.9268C42.273 37.9268 41.5604 37.7708 40.905 37.4847C42.7516 36.6732 44.0468 34.837 44.0468 32.699C44.0468 30.9981 43.2198 29.5 41.9557 28.5428V27.5857ZM37.7735 29.5624H38.8191C40.5461 29.5624 41.9557 30.9669 41.9557 32.699C41.9557 34.426 40.5461 35.8357 38.8191 35.8357H37.7735V34.3012L40.4472 32.5222L39.2872 30.7848L37.7735 31.7887V29.5624ZM39.8646 27.5753C39.5265 27.5077 39.178 27.4713 38.8191 27.4713H37.7735V23.289H39.8646V27.5753ZM18.2617 51.7739L17.6999 50.4579C17.7727 50.4579 17.8403 50.4683 17.9131 50.4683H19.5673L18.2617 51.7739ZM21.8249 54.6505H22.3606L24.8679 63.015H19.3176L21.8249 54.6505ZM22.5791 52.5594H21.6064L21.1382 51.8572L22.0954 50.9L23.0473 51.8572L22.5791 52.5594ZM24.6182 50.4683H26.2724C26.3452 50.4683 26.4128 50.4579 26.4857 50.4579L25.9239 51.7739L24.6182 50.4683ZM8.50312 61.9694C8.50312 57.0902 11.104 52.627 15.3122 50.1978L17.5594 55.436L19.6297 53.3657L19.9054 53.7766L17.1329 63.015H14.7765V56.7416H12.6854V63.015H8.50312V61.9694ZM35.6824 61.9694V63.015H31.5002V56.7416H29.4091V63.015H27.0526L24.2801 53.7766L24.5558 53.3657L26.6261 55.436L28.8733 50.1978C33.0815 52.6218 35.6824 57.0902 35.6824 61.9694ZM43.0013 52.5594C42.4239 52.5594 41.9557 52.0913 41.9557 51.5139C41.9557 50.9365 42.4239 50.4683 43.0013 50.4683C43.5787 50.4683 44.0468 50.9365 44.0468 51.5139C44.0468 52.0913 43.5787 52.5594 43.0013 52.5594ZM57.0461 46.7438C56.6403 47.1496 55.9745 47.1496 55.5688 46.7438C55.1578 46.3381 55.1578 45.6723 55.5688 45.2665C55.7664 45.0689 56.0265 44.9596 56.3074 44.9596C56.5883 44.9596 56.8484 45.0689 57.0461 45.2665C57.4518 45.6723 57.4518 46.3329 57.0461 46.7438ZM61.8161 33.7446C61.2439 33.7446 60.7705 33.2764 60.7705 32.699C60.7705 32.1216 61.2439 31.6535 61.8161 31.6535C62.3935 31.6535 62.8617 32.1216 62.8617 32.699C62.8617 33.2764 62.3935 33.7446 61.8161 33.7446ZM56.3074 18.3473C56.5727 18.3473 56.8432 18.4514 57.0461 18.6543C57.4518 19.06 57.4518 19.7258 57.0461 20.1316C56.6507 20.5269 55.9589 20.5269 55.5688 20.1316C55.1578 19.7258 55.1578 19.06 55.5688 18.6543C55.7716 18.4514 56.0369 18.3473 56.3074 18.3473ZM43.0013 12.8335C43.5787 12.8335 44.0468 13.3016 44.0468 13.879C44.0468 14.4564 43.5787 14.9246 43.0013 14.9246C42.4239 14.9246 41.9557 14.4564 41.9557 13.879C41.9557 13.3016 42.4239 12.8335 43.0013 12.8335ZM40.1455 15.1639C40.6397 16.2562 41.7321 17.0157 43.0013 17.0157C44.2705 17.0157 45.3629 16.2562 45.8571 15.1639C48.5724 15.6008 51.1421 16.6672 53.3788 18.2797C52.9575 19.3981 53.1916 20.709 54.0863 21.6089C54.6793 22.2019 55.4699 22.5296 56.3074 22.5296C56.6924 22.5296 57.0669 22.4515 57.4154 22.3163C59.0332 24.5531 60.0943 27.1227 60.5365 29.8433C59.4441 30.3322 58.6794 31.4246 58.6794 32.699C58.6794 33.9683 59.4441 35.0606 60.5365 35.5548C60.0943 38.2753 59.028 40.8502 57.405 43.0922C56.2866 42.6969 54.955 42.9205 54.0863 43.784C53.1916 44.6839 52.9575 45.9948 53.3788 47.1132C51.1421 48.7309 48.5724 49.7921 45.8571 50.2342C45.3629 49.1418 44.2705 48.3772 43.0013 48.3772C41.7269 48.3772 40.6345 49.1418 40.1455 50.2342C37.8359 49.8597 35.62 49.0274 33.6329 47.7946C35.0374 46.619 36.161 45.1209 36.8788 43.4095C37.4146 43.1338 38.0388 43.087 38.6006 43.3211C39.3705 43.6384 39.8646 44.3822 39.8646 45.2405V46.2861H45.0924L46.138 46.2601V45.2145C46.138 44.3874 46.6321 43.6384 47.402 43.3211C48.1666 43.0038 49.0457 43.1754 49.6544 43.784L50.393 44.5227L54.0915 40.8294L54.8093 40.07L54.0707 39.3313C53.4829 38.7435 53.306 37.8644 53.6285 37.0945C53.9458 36.3299 54.6897 35.8357 55.548 35.8357H56.5883V30.6079L56.5623 29.5624H55.5168C54.6897 29.5624 53.9458 29.063 53.6233 28.2983C53.306 27.5285 53.4829 26.6546 54.0967 26.0356L54.8197 25.2969L51.1317 21.6089L50.3722 20.891L49.6335 21.6297C49.0457 22.2175 48.1666 22.3943 47.3968 22.0718C46.6321 21.7545 46.138 21.0107 46.138 20.1524V19.1068H40.9102L39.8646 19.1432V19.1068C39.8646 17.8012 39.4641 16.5891 38.7774 15.5852C38.8139 15.528 38.8555 15.476 38.8919 15.4135C39.308 15.3147 39.7242 15.2315 40.1455 15.1639ZM29.4091 6.56533C29.4091 7.14793 29.2946 7.70972 29.0605 8.2351L30.98 9.07259C31.3129 8.31313 31.4794 7.51205 31.495 6.67977C31.8435 6.60694 32.192 6.56533 32.5457 6.56533C35.4275 6.56533 37.7735 8.90613 37.7735 11.7879C37.7735 12.5786 37.5862 13.3328 37.2585 14.0299C36.2234 13.2808 34.9593 12.8335 33.5913 12.8335C32.6185 12.8335 31.703 13.0623 30.8812 13.4629C30.2361 12.2457 29.1438 11.2937 27.8121 10.8516L27.6561 10.7996L26.985 12.7815L27.1515 12.8387C28.0566 13.1352 28.764 13.8374 29.1334 14.7061C28.015 15.8401 27.3179 17.3954 27.3179 19.1068H29.4091C29.4091 16.8024 31.2869 14.9246 33.5913 14.9246C35.9009 14.9246 37.7735 16.8024 37.7735 19.1068V21.1979H23.1409V19.1068C23.1409 17.952 24.0772 17.0157 25.2268 17.0157V14.9246C24.4622 14.9246 23.7547 15.1483 23.1409 15.5072V2.9553C23.7703 2.58597 24.483 2.38311 25.2268 2.38311C27.5364 2.38311 29.4091 4.25574 29.4091 6.56533ZM6.41201 19.1068C6.41201 16.8024 8.28985 14.9246 10.5942 14.9246V12.8335C9.22617 12.8335 7.96214 13.2808 6.93219 14.0247C6.59927 13.3328 6.41201 12.5786 6.41201 11.7879C6.41201 8.90613 8.75801 6.56533 11.6398 6.56533C11.9935 6.56533 12.3472 6.60694 12.6906 6.67977C12.7062 7.51205 12.8778 8.31313 13.2055 9.07259L15.125 8.2351C14.8909 7.70972 14.7765 7.14793 14.7765 6.56533C14.7765 4.25574 16.6491 2.38311 18.9587 2.38311C19.7025 2.38311 20.4152 2.58598 21.0498 2.9501V21.1979H16.8676C16.8676 20.0431 17.8039 19.1068 18.9587 19.1068V17.0157C17.6999 17.0157 16.5867 17.5827 15.822 18.4618C15.1406 17.4162 14.7765 16.199 14.7765 14.9246H12.6854C12.6854 17.0469 13.4552 19.0444 14.8337 20.6101C14.8077 20.8026 14.7765 20.9951 14.7765 21.1979H6.41201V19.1068ZM4.3209 23.289H6.41201V27.4713H5.36645C5.00753 27.4713 4.65901 27.5077 4.3209 27.5753V23.289ZM5.36645 29.5624H6.41201V31.7887L4.9035 30.7848L3.7435 32.5222L6.41201 34.3012V35.8357H5.36645C3.63947 35.8357 2.22978 34.426 2.22978 32.699C2.22978 30.9669 3.63947 29.5624 5.36645 29.5624ZM14.7765 33.7446C12.4669 33.7446 10.5942 31.8668 10.5942 29.5624H12.6854C12.6854 30.712 13.6217 31.6535 14.7765 31.6535C15.9261 31.6535 16.8676 30.712 16.8676 29.5624H18.9587C18.9587 31.8668 17.0808 33.7446 14.7765 33.7446ZM25.2268 29.5624H27.3179C27.3179 30.712 28.2595 31.6535 29.4091 31.6535C30.5638 31.6535 31.5002 30.712 31.5002 29.5624H33.5913C33.5913 31.8668 31.7186 33.7446 29.4091 33.7446C27.1047 33.7446 25.2268 31.8668 25.2268 29.5624ZM25.2268 42.1038H16.8676V40.0127H25.2268C26.3816 40.0127 27.3179 39.0764 27.3179 37.9268H29.4091C29.4091 40.2312 27.5364 42.1038 25.2268 42.1038Z" fill="white"/>
</mask>
<g mask="url(#mask1_177_2267)">
<path d="M0.138672 0.291992V65.1061H64.9528V0.291992H0.138672Z" fill="url(#paint0_linear_177_2267)"/>
</g>
</g>
<defs>
<linearGradient id="paint0_linear_177_2267" x1="16.5396" y1="16.2993" x2="48.552" y2="49.0989" gradientUnits="userSpaceOnUse">
<stop stop-color="#CC0A60"/>
<stop offset="0.015625" stop-color="#CC0A60"/>
<stop offset="0.0195312" stop-color="#CB0B61"/>
<stop offset="0.0234375" stop-color="#CA0C61"/>
<stop offset="0.0273438" stop-color="#C90C62"/>
<stop offset="0.03125" stop-color="#C80D62"/>
<stop offset="0.0351562" stop-color="#C80D63"/>
<stop offset="0.0390625" stop-color="#C70E63"/>
<stop offset="0.0429688" stop-color="#C60F64"/>
<stop offset="0.046875" stop-color="#C60F64"/>
<stop offset="0.0507812" stop-color="#C51064"/>
<stop offset="0.0546875" stop-color="#C41065"/>
<stop offset="0.0585938" stop-color="#C31165"/>
<stop offset="0.0625" stop-color="#C31266"/>
<stop offset="0.0664062" stop-color="#C21266"/>
<stop offset="0.0703125" stop-color="#C11367"/>
<stop offset="0.0742188" stop-color="#C01367"/>
<stop offset="0.078125" stop-color="#C01468"/>
<stop offset="0.0820312" stop-color="#BF1568"/>
<stop offset="0.0859375" stop-color="#BE1569"/>
<stop offset="0.0898438" stop-color="#BE1669"/>
<stop offset="0.09375" stop-color="#BD166A"/>
<stop offset="0.0976562" stop-color="#BC176A"/>
<stop offset="0.101562" stop-color="#BB176B"/>
<stop offset="0.105469" stop-color="#BB186B"/>
<stop offset="0.109375" stop-color="#BA196B"/>
<stop offset="0.113281" stop-color="#B9196C"/>
<stop offset="0.117188" stop-color="#B81A6C"/>
<stop offset="0.121094" stop-color="#B81A6D"/>
<stop offset="0.125" stop-color="#B71B6D"/>
<stop offset="0.128906" stop-color="#B61C6E"/>
<stop offset="0.132812" stop-color="#B61C6E"/>
<stop offset="0.136719" stop-color="#B51D6F"/>
<stop offset="0.140625" stop-color="#B41D6F"/>
<stop offset="0.144531" stop-color="#B31E70"/>
<stop offset="0.148438" stop-color="#B31F70"/>
<stop offset="0.152344" stop-color="#B21F71"/>
<stop offset="0.15625" stop-color="#B12071"/>
<stop offset="0.160156" stop-color="#B12071"/>
<stop offset="0.164062" stop-color="#B02172"/>
<stop offset="0.167969" stop-color="#AF2272"/>
<stop offset="0.171875" stop-color="#AE2273"/>
<stop offset="0.175781" stop-color="#AE2373"/>
<stop offset="0.179688" stop-color="#AD2374"/>
<stop offset="0.183594" stop-color="#AC2474"/>
<stop offset="0.1875" stop-color="#AB2475"/>
<stop offset="0.191406" stop-color="#AB2575"/>
<stop offset="0.195312" stop-color="#AA2676"/>
<stop offset="0.199219" stop-color="#A92676"/>
<stop offset="0.203125" stop-color="#A92777"/>
<stop offset="0.207031" stop-color="#A82777"/>
<stop offset="0.210938" stop-color="#A72877"/>
<stop offset="0.214844" stop-color="#A62978"/>
<stop offset="0.21875" stop-color="#A62978"/>
<stop offset="0.222656" stop-color="#A52A79"/>
<stop offset="0.226562" stop-color="#A42A79"/>
<stop offset="0.230469" stop-color="#A32B7A"/>
<stop offset="0.234375" stop-color="#A32C7A"/>
<stop offset="0.238281" stop-color="#A22C7B"/>
<stop offset="0.242188" stop-color="#A12D7B"/>
<stop offset="0.246094" stop-color="#A12D7C"/>
<stop offset="0.25" stop-color="#A02E7C"/>
<stop offset="0.253906" stop-color="#9F2E7D"/>
<stop offset="0.257812" stop-color="#9E2F7D"/>
<stop offset="0.261719" stop-color="#9E307D"/>
<stop offset="0.265625" stop-color="#9D307E"/>
<stop offset="0.269531" stop-color="#9C317E"/>
<stop offset="0.273438" stop-color="#9C317F"/>
<stop offset="0.277344" stop-color="#9B327F"/>
<stop offset="0.28125" stop-color="#9A3380"/>
<stop offset="0.285156" stop-color="#993380"/>
<stop offset="0.289062" stop-color="#993481"/>
<stop offset="0.292969" stop-color="#983481"/>
<stop offset="0.296875" stop-color="#973582"/>
<stop offset="0.300781" stop-color="#963682"/>
<stop offset="0.304688" stop-color="#963683"/>
<stop offset="0.308594" stop-color="#953783"/>
<stop offset="0.3125" stop-color="#943783"/>
<stop offset="0.316406" stop-color="#943884"/>
<stop offset="0.320312" stop-color="#933984"/>
<stop offset="0.324219" stop-color="#923985"/>
<stop offset="0.328125" stop-color="#913A85"/>
<stop offset="0.332031" stop-color="#913A86"/>
<stop offset="0.335938" stop-color="#903B86"/>
<stop offset="0.339844" stop-color="#8F3B87"/>
<stop offset="0.34375" stop-color="#8F3C87"/>
<stop offset="0.347656" stop-color="#8E3D88"/>
<stop offset="0.351562" stop-color="#8D3D88"/>
<stop offset="0.355469" stop-color="#8C3E89"/>
<stop offset="0.359375" stop-color="#8C3E89"/>
<stop offset="0.363281" stop-color="#8B3F8A"/>
<stop offset="0.367188" stop-color="#8A408A"/>
<stop offset="0.371094" stop-color="#89408A"/>
<stop offset="0.375" stop-color="#89418B"/>
<stop offset="0.378906" stop-color="#88418B"/>
<stop offset="0.382812" stop-color="#87428C"/>
<stop offset="0.386719" stop-color="#87438C"/>
<stop offset="0.390625" stop-color="#86438D"/>
<stop offset="0.394531" stop-color="#85448D"/>
<stop offset="0.398438" stop-color="#84448E"/>
<stop offset="0.402344" stop-color="#84458E"/>
<stop offset="0.40625" stop-color="#83458F"/>
<stop offset="0.410156" stop-color="#82468F"/>
<stop offset="0.414062" stop-color="#814790"/>
<stop offset="0.417969" stop-color="#814790"/>
<stop offset="0.421875" stop-color="#804890"/>
<stop offset="0.425781" stop-color="#7F4891"/>
<stop offset="0.429688" stop-color="#7F4991"/>
<stop offset="0.433594" stop-color="#7E4A92"/>
<stop offset="0.4375" stop-color="#7D4A92"/>
<stop offset="0.441406" stop-color="#7C4B93"/>
<stop offset="0.445312" stop-color="#7C4B93"/>
<stop offset="0.449219" stop-color="#7B4C94"/>
<stop offset="0.453125" stop-color="#7A4D94"/>
<stop offset="0.457031" stop-color="#7A4D95"/>
<stop offset="0.460938" stop-color="#794E95"/>
<stop offset="0.464844" stop-color="#784E96"/>
<stop offset="0.46875" stop-color="#774F96"/>
<stop offset="0.472656" stop-color="#775096"/>
<stop offset="0.476562" stop-color="#765097"/>
<stop offset="0.480469" stop-color="#755197"/>
<stop offset="0.484375" stop-color="#745198"/>
<stop offset="0.488281" stop-color="#745298"/>
<stop offset="0.492188" stop-color="#735299"/>
<stop offset="0.496094" stop-color="#725399"/>
<stop offset="0.5" stop-color="#72549A"/>
<stop offset="0.503906" stop-color="#71549A"/>
<stop offset="0.507812" stop-color="#70559B"/>
<stop offset="0.511719" stop-color="#6F559B"/>
<stop offset="0.515625" stop-color="#6F569C"/>
<stop offset="0.519531" stop-color="#6E579C"/>
<stop offset="0.523438" stop-color="#6D579C"/>
<stop offset="0.527344" stop-color="#6C589D"/>
<stop offset="0.53125" stop-color="#6C589D"/>
<stop offset="0.535156" stop-color="#6B599E"/>
<stop offset="0.539062" stop-color="#6A5A9E"/>
<stop offset="0.542969" stop-color="#6A5A9F"/>
<stop offset="0.546875" stop-color="#695B9F"/>
<stop offset="0.550781" stop-color="#685BA0"/>
<stop offset="0.554688" stop-color="#675CA0"/>
<stop offset="0.558594" stop-color="#675CA1"/>
<stop offset="0.5625" stop-color="#665DA1"/>
<stop offset="0.566406" stop-color="#655EA2"/>
<stop offset="0.570312" stop-color="#655EA2"/>
<stop offset="0.574219" stop-color="#645FA2"/>
<stop offset="0.578125" stop-color="#635FA3"/>
<stop offset="0.582031" stop-color="#6260A3"/>
<stop offset="0.585938" stop-color="#6261A4"/>
<stop offset="0.589844" stop-color="#6161A4"/>
<stop offset="0.59375" stop-color="#6062A5"/>
<stop offset="0.597656" stop-color="#5F62A5"/>
<stop offset="0.601562" stop-color="#5F63A6"/>
<stop offset="0.605469" stop-color="#5E64A6"/>
<stop offset="0.609375" stop-color="#5D64A7"/>
<stop offset="0.613281" stop-color="#5D65A7"/>
<stop offset="0.617188" stop-color="#5C65A8"/>
<stop offset="0.621094" stop-color="#5B66A8"/>
<stop offset="0.625" stop-color="#5A67A9"/>
<stop offset="0.628906" stop-color="#5A67A9"/>
<stop offset="0.632812" stop-color="#5968A9"/>
<stop offset="0.636719" stop-color="#5868AA"/>
<stop offset="0.640625" stop-color="#5769AA"/>
<stop offset="0.644531" stop-color="#5769AB"/>
<stop offset="0.648438" stop-color="#566AAB"/>
<stop offset="0.652344" stop-color="#556BAC"/>
<stop offset="0.65625" stop-color="#556BAC"/>
<stop offset="0.660156" stop-color="#546CAD"/>
<stop offset="0.664062" stop-color="#536CAD"/>
<stop offset="0.667969" stop-color="#526DAE"/>
<stop offset="0.671875" stop-color="#526EAE"/>
<stop offset="0.675781" stop-color="#516EAF"/>
<stop offset="0.679688" stop-color="#506FAF"/>
<stop offset="0.683594" stop-color="#506FAF"/>
<stop offset="0.6875" stop-color="#4F70B0"/>
<stop offset="0.691406" stop-color="#4E71B0"/>
<stop offset="0.695312" stop-color="#4D71B1"/>
<stop offset="0.699219" stop-color="#4D72B1"/>
<stop offset="0.703125" stop-color="#4C72B2"/>
<stop offset="0.707031" stop-color="#4B73B2"/>
<stop offset="0.710938" stop-color="#4A73B3"/>
<stop offset="0.714844" stop-color="#4A74B3"/>
<stop offset="0.71875" stop-color="#4975B4"/>
<stop offset="0.722656" stop-color="#4875B4"/>
<stop offset="0.726562" stop-color="#4876B5"/>
<stop offset="0.730469" stop-color="#4776B5"/>
<stop offset="0.734375" stop-color="#4677B5"/>
<stop offset="0.738281" stop-color="#4578B6"/>
<stop offset="0.742188" stop-color="#4578B6"/>
<stop offset="0.746094" stop-color="#4479B7"/>
<stop offset="0.75" stop-color="#4379B7"/>
<stop offset="0.753906" stop-color="#437AB8"/>
<stop offset="0.757812" stop-color="#427BB8"/>
<stop offset="0.761719" stop-color="#417BB9"/>
<stop offset="0.765625" stop-color="#407CB9"/>
<stop offset="0.769531" stop-color="#407CBA"/>
<stop offset="0.773438" stop-color="#3F7DBA"/>
<stop offset="0.777344" stop-color="#3E7EBB"/>
<stop offset="0.78125" stop-color="#3D7EBB"/>
<stop offset="0.785156" stop-color="#3D7FBB"/>
<stop offset="0.789062" stop-color="#3C7FBC"/>
<stop offset="0.792969" stop-color="#3B80BC"/>
<stop offset="0.796875" stop-color="#3B80BD"/>
<stop offset="0.800781" stop-color="#3A81BD"/>
<stop offset="0.804688" stop-color="#3982BE"/>
<stop offset="0.808594" stop-color="#3882BE"/>
<stop offset="0.8125" stop-color="#3883BF"/>
<stop offset="0.816406" stop-color="#3783BF"/>
<stop offset="0.820312" stop-color="#3684C0"/>
<stop offset="0.824219" stop-color="#3585C0"/>
<stop offset="0.828125" stop-color="#3585C1"/>
<stop offset="0.832031" stop-color="#3486C1"/>
<stop offset="0.835938" stop-color="#3386C1"/>
<stop offset="0.839844" stop-color="#3387C2"/>
<stop offset="0.84375" stop-color="#3288C2"/>
<stop offset="0.847656" stop-color="#3188C3"/>
<stop offset="0.851562" stop-color="#3089C3"/>
<stop offset="0.855469" stop-color="#3089C4"/>
<stop offset="0.859375" stop-color="#2F8AC4"/>
<stop offset="0.863281" stop-color="#2E8AC5"/>
<stop offset="0.867188" stop-color="#2E8BC5"/>
<stop offset="0.871094" stop-color="#2D8CC6"/>
<stop offset="0.875" stop-color="#2C8CC6"/>
<stop offset="0.878906" stop-color="#2B8DC7"/>
<stop offset="0.882812" stop-color="#2B8DC7"/>
<stop offset="0.886719" stop-color="#2A8EC8"/>
<stop offset="0.890625" stop-color="#298FC8"/>
<stop offset="0.894531" stop-color="#288FC8"/>
<stop offset="0.898438" stop-color="#2890C9"/>
<stop offset="0.902344" stop-color="#2790C9"/>
<stop offset="0.90625" stop-color="#2691CA"/>
<stop offset="0.910156" stop-color="#2692CA"/>
<stop offset="0.914062" stop-color="#2592CB"/>
<stop offset="0.917969" stop-color="#2493CB"/>
<stop offset="0.921875" stop-color="#2393CC"/>
<stop offset="0.925781" stop-color="#2394CC"/>
<stop offset="0.929688" stop-color="#2295CD"/>
<stop offset="0.933594" stop-color="#2195CD"/>
<stop offset="0.9375" stop-color="#2096CE"/>
<stop offset="0.941406" stop-color="#2096CE"/>
<stop offset="0.945312" stop-color="#1F97CE"/>
<stop offset="0.949219" stop-color="#1E97CF"/>
<stop offset="0.953125" stop-color="#1E98CF"/>
<stop offset="0.957031" stop-color="#1D99D0"/>
<stop offset="0.960938" stop-color="#1C99D0"/>
<stop offset="0.964844" stop-color="#1B9AD1"/>
<stop offset="0.96875" stop-color="#1B9AD1"/>
<stop offset="0.972656" stop-color="#1A9BD2"/>
<stop offset="0.976562" stop-color="#199CD2"/>
<stop offset="0.980469" stop-color="#199CD3"/>
<stop offset="0.984375" stop-color="#189DD3"/>
<stop offset="0.988281" stop-color="#179DD4"/>
<stop offset="0.992188" stop-color="#169ED4"/>
<stop offset="0.996094" stop-color="#169FD4"/>
<stop offset="1" stop-color="#159FD5"/>
</linearGradient>
</defs>
</svg>
